<svg width="80" height="51" viewBox="0 0 80 51" fill="none" xmlns="http://www.w3.org/2000/svg">
<path fill-rule="evenodd" clip-rule="evenodd" d="M69.5838 12.9963H79.7295L78.7325 18.3934H74.613L73.6586 23.4882H77.3446L76.4342 28.5834H72.7483L68.8026 50.6475H62.7766L69.5838 12.9963ZM67.4155 12.9963H61.2589L57.5295 32.8149C57.2698 34.1538 57.0528 35.0166 56.8797 35.4052C56.6626 35.7508 56.4021 35.9232 56.0119 35.9232C55.6657 35.9232 55.4486 35.7508 55.4047 35.4485C55.3616 35.1028 55.4486 34.3686 55.6652 33.1597L59.4804 12.9959H53.2799L50.2878 28.9282C49.7245 31.9508 49.3774 33.9372 49.2908 34.8867C49.2477 35.837 49.3774 36.7436 49.7684 37.6069C50.1146 38.471 50.8084 39.1615 51.8054 39.68C52.8032 40.2409 53.9737 40.5004 55.4043 40.5004C56.7049 40.5004 57.8323 40.2842 58.8732 39.8095C59.914 39.3776 60.7809 38.6868 61.5182 37.8226C62.2555 36.9593 62.7761 36.0956 63.0358 35.2748C63.3394 34.4553 63.643 33.0302 64.0328 30.9571L67.4155 12.9963ZM42.2243 30.3112C42.4839 27.2454 42.8741 23.5319 43.4383 19.0414C41.8341 24.1795 40.7497 27.8925 40.186 30.3112H42.2243ZM48.5109 12.9963L46.6031 39.939H40.9233L41.5305 35.0604H39.3626L38.0616 39.939H31.905L40.5766 12.9963H48.5109ZM35.6771 12.9963H30.474L28.2191 25.1294L27.0051 12.9963H21.8455L16.7725 39.939H21.9756L24.2735 27.6772L25.1839 39.939H30.6036L35.6771 12.9963ZM19.0708 13.2124L13.9543 25.3884L15.2118 39.939H9.53153L8.49108 30.3112L6.67028 39.939H0.729492L6.92998 0.647461H12.8699L9.83471 22.1502L13.6072 13.2124H19.0708Z" fill="#00ACEC"/>
</svg>
