<svg width="150" height="43" viewBox="0 0 150 43" fill="none" xmlns="http://www.w3.org/2000/svg">
<path d="M18.2492 20.044C18.129 20.1422 18.0147 20.2302 17.8959 20.3327C16.91 21.6469 14.7109 23.3048 12.3063 22.2737C11.5489 21.9441 10.8612 21.4742 10.2795 20.8888C10.0146 20.6288 9.80171 20.2663 9.50496 20.0497V12.8867C10.5343 13.4066 11.4608 14.0203 12.732 14.3467C14.5169 14.8104 17.479 13.7821 18.1029 12.8867H18.2477L18.2492 20.044ZM25.6484 10.5933C23.7853 5.5345 20.0226 0.657579 13.0764 0.722566C12.4927 0.821806 11.9177 0.966667 11.3566 1.15581C10.1709 1.63961 8.54512 2.62885 8.46115 4.13655C4.71156 5.87965 1.87693 8.81995 0.710071 13.1683C0.130984 15.3736 0.657953 18.2358 1.27179 19.9068C2.82374 24.1179 5.63521 26.7044 10.0695 28.0402C12.0819 28.6482 15.2249 28.693 17.2676 28.0402C21.6311 26.6409 24.651 23.6254 26.0654 19.2814C26.9341 16.6082 26.4896 12.8824 25.6456 10.5933" fill="#DC2F34"/>
<path d="M45.703 28.017H39.8759V18.8192C39.8759 17.7419 39.6544 16.9418 39.2259 16.4507C38.7974 15.9597 38.1517 15.7417 37.2411 15.7417C35.3938 15.7417 34.6352 16.6312 34.6352 18.8206V28.017H28.7285V18.8192C28.7285 15.9424 29.477 13.7285 30.9363 12.2468C32.3955 10.765 34.5787 10.0112 37.422 10.0112C39.7948 10.0112 42.0461 10.8778 43.598 12.3796C45.538 14.2411 45.6972 16.4016 45.6972 18.8192L45.703 28.017Z" fill="#DC2F34"/>
<path d="M57.3831 15.5238C55.2448 15.5238 53.6307 17.1211 53.6307 19.2368C53.6246 19.7206 53.7154 20.2006 53.8976 20.649C54.0799 21.0973 54.3498 21.5049 54.6918 21.848C55.0338 22.1909 55.4409 22.4625 55.8894 22.6467C56.3377 22.831 56.8185 22.9242 57.3034 22.9208C59.4751 22.9208 60.9474 21.4435 60.9474 19.2368C60.9474 17.0302 59.4794 15.5238 57.3831 15.5238ZM57.2383 28.4678C54.7247 28.4725 52.3078 27.5015 50.4992 25.76C49.6087 24.9225 48.9003 23.9112 48.4182 22.789C47.936 21.6668 47.6904 20.4577 47.6964 19.2368C47.7204 16.8141 48.7008 14.4986 50.4249 12.7921C52.1491 11.0858 54.4781 10.1261 56.9068 10.1212C58.4805 10.1212 59.8515 10.4924 60.9518 11.1928V1.97046H66.7744V17.1081C66.7744 20.1856 66.6862 22.515 65.4309 24.4733C63.7632 27.0583 60.8548 28.4736 57.2383 28.4736" fill="#DC2F34"/>
<path d="M77.9944 28.4678C75.6172 28.4678 73.3617 27.6128 71.814 26.1124C69.8654 24.2436 69.7148 22.0947 69.7148 19.696V10.4707H75.5361V19.6613C75.5361 21.8276 76.3194 22.7431 78.1421 22.7431C80.0241 22.7431 80.7813 21.8492 80.7813 19.6613V10.4707H86.685V19.696C86.685 22.5713 85.9453 24.7823 84.4729 26.2453C83.0006 27.7082 80.8392 28.4678 78.0002 28.4678" fill="#DC2F34"/>
<path d="M95.3914 1.97168H89.6396V28.0141H95.3914V1.97168Z" fill="#DC2F34"/>
<path d="M104.337 10.0159H98.5898V28.0144H104.337V10.0159Z" fill="#DC2F34"/>
<path d="M124.238 28.017H118.405V18.8192C118.405 17.7419 118.188 16.9418 117.755 16.4507C117.322 15.9597 116.685 15.7417 115.77 15.7417C113.921 15.7417 113.164 16.6312 113.164 18.8206V28.017H107.271V18.8192C107.271 15.9424 108.015 13.7285 109.469 12.2468C110.925 10.765 113.117 10.0112 115.96 10.0112C118.329 10.0112 120.584 10.8778 122.136 12.3796C124.073 14.2411 124.238 16.4016 124.238 18.8192V28.017Z" fill="#DC2F34"/>
<path d="M135.929 15.0703C136.779 15.0768 137.604 15.361 138.277 15.8796C138.95 16.398 139.434 17.1222 139.655 17.9413H132.2C132.42 17.1222 132.905 16.398 133.578 15.8796C134.251 15.361 135.075 15.0768 135.925 15.0703H135.929ZM145.391 19.81C145.399 19.6397 145.399 19.4577 145.399 19.2814C145.402 14.2139 141.11 10.1096 135.819 10.1096C130.528 10.1096 126.225 14.2197 126.225 19.2873C126.225 24.3548 130.521 28.4735 135.819 28.4735C140.244 28.4735 143.971 25.5982 145.076 21.6859H138.777C138.419 22.0861 137.98 22.4063 137.489 22.6253C136.998 22.8444 136.467 22.9574 135.929 22.9568C135.031 22.951 134.162 22.6348 133.471 22.0621C132.78 21.4894 132.311 20.6956 132.14 19.8158L145.391 19.81Z" fill="#DC2F34"/>
<path d="M104.787 5.30071C104.789 5.95808 104.596 6.60126 104.231 7.14882C103.867 7.69637 103.347 8.12368 102.739 8.37663C102.13 8.62959 101.461 8.69681 100.814 8.56979C100.168 8.44277 99.5737 8.12722 99.1069 7.6631C98.64 7.19897 98.322 6.60715 98.1927 5.96256C98.0634 5.31796 98.1285 4.64958 98.3805 4.04206C98.6326 3.43453 99.0585 2.91518 99.6063 2.54975C100.154 2.18433 100.799 1.98926 101.458 1.98926C102.339 1.98926 103.184 2.33781 103.809 2.95855C104.433 3.57928 104.785 4.42153 104.787 5.30071Z" fill="#DC2F34"/>
<path d="M146.676 12.1545H146.92C147.193 12.1545 147.428 12.0664 147.428 11.8368C147.428 11.6389 147.284 11.5061 146.956 11.5061C146.862 11.5041 146.768 11.5129 146.676 11.532V12.1545ZM146.663 13.3806H146.156V11.197C146.434 11.1577 146.714 11.1374 146.995 11.1364C147.415 11.1364 147.6 11.197 147.747 11.3082C147.819 11.3603 147.878 11.43 147.917 11.5108C147.956 11.5916 147.974 11.6809 147.968 11.7704C147.968 12.039 147.774 12.2122 147.516 12.2917V12.3177C147.734 12.3885 147.843 12.5603 147.906 12.8506C147.932 13.0343 147.985 13.213 148.065 13.3806H147.531C147.463 13.3012 147.428 13.1207 147.359 12.8506C147.313 12.6224 147.18 12.517 146.902 12.517H146.663V13.3806ZM146.995 10.5053C146.54 10.522 146.109 10.7155 145.795 11.0443C145.48 11.3731 145.306 11.8115 145.311 12.266C145.316 12.7205 145.498 13.1553 145.819 13.4778C146.14 13.8003 146.574 13.9851 147.03 13.9929C147.968 14.0073 148.694 13.2218 148.694 12.2599C148.694 11.2981 147.969 10.4994 147.008 10.4994L146.995 10.5053ZM147.03 10.072C147.323 10.0661 147.614 10.1187 147.886 10.2269C148.159 10.3349 148.406 10.4963 148.615 10.7014C148.824 10.9066 148.989 11.1513 149.102 11.4213C149.214 11.6912 149.272 11.9809 149.27 12.2732C149.269 12.5655 149.209 12.8546 149.093 13.1235C148.979 13.3922 148.811 13.6353 148.6 13.8384C148.389 14.0415 148.139 14.2004 147.866 14.3058C147.592 14.4112 147.301 14.461 147.008 14.4522C146.715 14.4597 146.423 14.4085 146.151 14.3019C145.877 14.1952 145.629 14.035 145.419 13.831C145.209 13.6269 145.042 13.3829 144.928 13.1134C144.814 12.844 144.756 12.5545 144.756 12.2621C144.756 11.9697 144.814 11.6802 144.928 11.4108C145.042 11.1412 145.209 10.8973 145.419 10.6932C145.629 10.4891 145.877 10.329 146.151 10.2223C146.423 10.1156 146.715 10.0645 147.008 10.072H147.03Z" fill="#DC2F34"/>
<path d="M131.63 40.1943C132.114 40.5794 132.711 40.7969 133.329 40.8138C134.463 40.8138 135.074 40.1943 135.074 39.4289C135.074 38.5899 134.399 38.2981 133.787 38.0699C133.302 37.8981 132.855 37.7508 132.855 37.4056C132.855 37.1169 133.064 36.9132 133.512 36.9132C133.873 36.9303 134.219 37.0647 134.497 37.2959L134.983 36.6575C134.562 36.3168 134.037 36.1275 133.495 36.1204C132.481 36.1204 131.859 36.6763 131.859 37.4591C131.859 38.2072 132.525 38.5437 133.119 38.7588C133.594 38.9408 134.079 39.1054 134.079 39.4809C134.079 39.7914 133.85 40.0196 133.366 40.0196C132.91 40.0196 132.525 39.8275 132.123 39.5184L131.63 40.1943ZM124.011 40.7041H125.062V37.579C125.409 37.2049 125.728 37.0215 126.003 37.0215C126.477 37.0215 126.698 37.2959 126.698 38.0324V40.7027H127.748V37.579C128.094 37.2049 128.406 37.0215 128.688 37.0215C129.155 37.0215 129.374 37.2959 129.374 38.0324V40.7027H130.432V37.8981C130.432 36.7674 129.998 36.1204 129.044 36.1204C128.479 36.1204 128.031 36.4655 127.597 36.9218C127.385 36.4207 127.017 36.1204 126.353 36.1204C125.795 36.1204 125.356 36.438 124.984 36.8424H124.945L124.874 36.2316H124.005L124.011 40.7041ZM119.736 38.0699C119.827 37.3233 120.284 36.9305 120.812 36.9305C121.425 36.9305 121.728 37.3638 121.728 38.0699H119.736ZM118.722 38.4714C118.722 39.9473 119.691 40.8138 120.932 40.8138C121.481 40.8045 122.015 40.6364 122.469 40.33L122.113 39.6744C121.806 39.8842 121.442 39.9982 121.07 40.0022C120.347 40.0022 119.837 39.5473 119.746 38.7357H122.596C122.629 38.5737 122.645 38.4085 122.641 38.2433C122.641 36.9955 122.003 36.1204 120.786 36.1204C119.736 36.1204 118.722 37.0129 118.722 38.4714ZM115.598 39.1936C115.598 40.1611 115.981 40.8168 117.024 40.8168C117.335 40.8121 117.643 40.7565 117.936 40.6521L117.755 39.878C117.607 39.9399 117.449 39.9736 117.289 39.9776C116.854 39.9776 116.657 39.7235 116.657 39.1936V37.059H117.8V36.2287H116.657V35.0083H115.78L115.653 36.2287L114.959 36.2748V37.059H115.598V39.1936ZM110.693 40.1972C111.177 40.5824 111.773 40.8 112.391 40.8168C113.525 40.8168 114.136 40.1972 114.136 39.4318C114.136 38.5928 113.46 38.301 112.849 38.0728C112.363 37.901 111.916 37.7537 111.916 37.4085C111.916 37.1197 112.126 36.9161 112.575 36.9161C112.936 36.9332 113.283 37.0676 113.561 37.2988L114.045 36.6605C113.623 36.3197 113.099 36.1305 112.556 36.1232C111.551 36.1232 110.92 36.6792 110.92 37.462C110.92 38.2101 111.588 38.5465 112.181 38.7617C112.656 38.9437 113.14 39.1083 113.14 39.4838C113.14 39.7942 112.912 40.0225 112.428 40.0225C111.971 40.0225 111.588 39.8304 111.185 39.5213L110.693 40.1972ZM106.161 41.6413L105.968 42.4587C106.154 42.5216 106.35 42.5524 106.547 42.5498C107.524 42.5498 107.994 41.92 108.365 40.9091L109.991 36.233H108.977L108.313 38.4252C108.203 38.8267 108.084 39.273 107.974 39.6831H107.938C107.793 39.2642 107.673 38.8166 107.544 38.4252L106.768 36.2287H105.7L107.463 40.6492L107.38 40.9381C107.236 41.3843 106.959 41.7035 106.485 41.7035C106.376 41.6984 106.268 41.6769 106.166 41.6399L106.161 41.6413ZM101.506 40.1957C101.99 40.5808 102.586 40.7983 103.206 40.8153C104.337 40.8153 104.95 40.1957 104.95 39.4303C104.95 38.5913 104.274 38.2995 103.663 38.0714C103.178 37.8995 102.73 37.7522 102.73 37.4071C102.73 37.1182 102.941 36.9147 103.388 36.9147C103.75 36.9318 104.096 37.0662 104.374 37.2974L104.858 36.659C104.437 36.3186 103.912 36.1295 103.37 36.1217C102.357 36.1217 101.734 36.6778 101.734 37.4605C101.734 38.2086 102.4 38.5451 102.995 38.7603C103.471 38.9423 103.955 39.1069 103.955 39.4823C103.955 39.7928 103.726 40.021 103.242 40.021C102.785 40.021 102.4 39.8289 101.999 39.5199L101.506 40.1957ZM95.9972 39.7625C95.3489 39.7625 94.9649 39.2426 94.9649 38.3776C94.9649 37.5125 95.428 36.9853 96.0074 36.9853C96.3487 36.9879 96.6751 37.122 96.9197 37.3594V39.2556C96.6184 39.6108 96.3403 39.7654 95.9888 39.7654L95.9972 39.7625ZM94.5594 41.3699L94.1929 42.0804C94.6868 42.3918 95.2559 42.5622 95.839 42.5728C97.2089 42.5728 97.9762 41.9258 97.9762 40.7951V36.2287H97.1178L97.0434 36.6388H97.0081C96.8565 36.4731 96.6714 36.3412 96.4649 36.2519C96.2594 36.1626 96.0362 36.1177 95.8121 36.1204C94.8328 36.1204 93.8935 37.0041 93.8935 38.3891C93.8935 39.738 94.618 40.6218 95.7293 40.6218C96.1878 40.6096 96.6249 40.4243 96.9523 40.1033L96.9253 40.7951C96.8974 41.3727 96.5775 41.7424 95.839 41.7424C95.3861 41.738 94.9435 41.6091 94.5594 41.3699ZM88.6485 40.7041H89.6996V37.579C90.0731 37.2136 90.3293 37.0215 90.7232 37.0215C91.2153 37.0215 91.4267 37.2959 91.4267 38.0324V40.7027H92.4763V37.8981C92.4763 36.7674 92.0565 36.1204 91.0967 36.1204C90.4843 36.1204 90.0282 36.438 89.6272 36.8309H89.5896L89.5158 36.2287H88.6471L88.6485 40.7041ZM85.8892 40.7041H86.9402V36.2272H85.8892V40.7041ZM86.419 35.4445C86.794 35.4445 87.0691 35.199 87.0691 34.8538C87.0691 34.6814 87.0005 34.5162 86.8783 34.3943C86.7561 34.2724 86.5904 34.204 86.4176 34.204C86.2448 34.204 86.0791 34.2724 85.957 34.3943C85.8348 34.5162 85.7662 34.6814 85.7662 34.8538C85.7662 35.199 86.0412 35.4445 86.4148 35.4445H86.419ZM85.1118 34.3151C84.8496 34.2132 84.5708 34.1607 84.2895 34.1606C83.2298 34.1606 82.8012 34.8351 82.8012 35.7636V36.2287L82.1975 36.2748V37.059H82.8012V40.7041H83.8508V37.059H84.7281V36.2287H83.8508V35.7463C83.8508 35.2264 84.0521 34.9896 84.4183 34.9896C84.5882 34.9923 84.7557 35.0296 84.9106 35.0993L85.1118 34.3151ZM78.0585 38.4714C78.0585 37.5688 78.4522 36.9767 79.1096 36.9767C79.7668 36.9767 80.1707 37.5688 80.1707 38.4714C80.1707 39.3741 79.7683 39.9575 79.1096 39.9575C78.4508 39.9575 78.0585 39.3639 78.0585 38.4714ZM76.9814 38.4714C76.9814 39.9575 77.9948 40.8138 79.1096 40.8138C80.2243 40.8138 81.2478 39.9575 81.2478 38.4714C81.2478 36.9853 80.2344 36.1204 79.1096 36.1204C77.9846 36.1204 76.9814 36.9767 76.9814 38.4714ZM72.6788 38.4714C72.6788 37.5688 73.0711 36.9767 73.7284 36.9767C74.3856 36.9767 74.7881 37.5688 74.7881 38.4714C74.7881 39.3741 74.3871 39.9575 73.7284 39.9575C73.0696 39.9575 72.6788 39.3639 72.6788 38.4714ZM71.6002 38.4714C71.6002 39.9575 72.6137 40.8138 73.7284 40.8138C74.8431 40.8138 75.8666 39.9575 75.8666 38.4714C75.8666 36.9853 74.8532 36.1204 73.7284 36.1204C72.6035 36.1204 71.6002 36.9767 71.6002 38.4714ZM68.2111 40.7041H69.2607V37.9688C69.5358 37.2959 69.9658 37.049 70.3218 37.049C70.4798 37.048 70.6368 37.073 70.7866 37.1226L70.969 36.2113C70.8082 36.1414 70.6331 36.1102 70.458 36.1204C69.9831 36.1204 69.5083 36.438 69.1884 37.0215H69.1521L69.0783 36.2287H68.2096L68.2111 40.7041ZM62.4651 39.1906C62.4651 40.1582 62.8488 40.8138 63.8897 40.8138C64.2011 40.8091 64.5097 40.7535 64.8032 40.6492L64.6207 39.8752C64.473 39.937 64.3149 39.9708 64.1546 39.9748C63.7203 39.9748 63.5248 39.7206 63.5248 39.1906V37.059H64.6657V36.2287H63.5248V35.0083H62.6475L62.5186 36.2287L61.8252 36.2748V37.059H62.4651V39.1906ZM56.8451 40.7041H57.8961V37.579C58.271 37.2136 58.5273 37.0215 58.9196 37.0215C59.4134 37.0215 59.6233 37.2959 59.6233 38.0324V40.7027H60.683V37.8981C60.683 36.7674 60.2617 36.1204 59.3033 36.1204C58.6909 36.1204 58.2436 36.438 57.8686 36.7948L57.9048 35.9283V34.2704H56.8538L56.8451 40.7041ZM53.1274 39.7654C52.4788 39.7654 52.0951 39.2455 52.0951 38.3804C52.0951 37.5154 52.5758 36.9853 53.1548 36.9853C53.4963 36.988 53.8236 37.122 54.0683 37.3594V39.2556C53.7672 39.6108 53.4892 39.7654 53.136 39.7654H53.1274ZM51.7072 41.3699L51.3408 42.0804C51.8335 42.3917 52.4024 42.5619 52.9854 42.5728C54.355 42.5728 55.1223 41.9258 55.1223 40.7951V36.2287H54.2638L54.1914 36.6388H54.1538C54.0028 36.4726 53.8181 36.3404 53.6119 36.251C53.4057 36.1616 53.1828 36.1171 52.9579 36.1204C51.9793 36.1204 51.0397 37.0041 51.0397 38.3891C51.0397 39.738 51.7636 40.6218 52.8754 40.6218C53.3344 40.6099 53.7716 40.4246 54.0988 40.1033L54.0727 40.7951C54.0452 41.3727 53.7253 41.7424 52.9854 41.7424C52.5331 41.7378 52.0908 41.6089 51.7072 41.3699ZM48.5222 40.7041H49.5732V36.2272H48.5222V40.7041ZM49.052 35.4445C49.4255 35.4445 49.7006 35.199 49.7006 34.8538C49.7006 34.6814 49.6319 34.5162 49.5097 34.3943C49.3876 34.2724 49.2219 34.204 49.0491 34.204C48.8763 34.204 48.7106 34.2724 48.5885 34.3943C48.4663 34.5162 48.3976 34.6814 48.3976 34.8538C48.3976 35.199 48.6712 35.4445 49.0462 35.4445H49.052ZM44.2369 38.0699C44.3281 37.3233 44.7856 36.9305 45.314 36.9305C45.9264 36.9305 46.2275 37.3638 46.2275 38.0699H44.2369ZM43.2235 38.4714C43.2235 39.9473 44.1921 40.8138 45.4342 40.8138C45.9823 40.8045 46.516 40.6364 46.9702 40.33L46.6141 39.6744C46.3068 39.8842 45.944 39.9982 45.5717 40.0022C44.8478 40.0022 44.3383 39.5473 44.247 38.7357H47.0976C47.1306 38.5737 47.1457 38.4085 47.1425 38.2433C47.1425 36.9955 46.5041 36.1204 45.288 36.1204C44.2384 36.1204 43.2235 37.0129 43.2235 38.4714ZM37.1127 40.7041H38.3172L38.8224 38.626C38.9223 38.2072 39.0049 37.7883 39.0874 37.3132H39.1235C39.2249 37.7883 39.2973 38.1971 39.3986 38.6129L39.9183 40.6998H41.1707L42.3114 36.2228H41.3255L40.7928 38.5596C40.7102 38.9928 40.6365 39.4087 40.5539 39.8462H40.5177C40.4178 39.413 40.3266 38.9884 40.2166 38.5596L39.623 36.2359H38.6632L38.0841 38.5596C37.9755 38.9797 37.8828 39.4087 37.8018 39.8462H37.7641C37.683 39.413 37.6193 38.9884 37.5282 38.5596L36.9881 36.2359H35.927L37.1127 40.7041ZM32.8636 39.1906C32.8636 40.1582 33.2473 40.8138 34.2896 40.8138C34.6006 40.8091 34.9087 40.7535 35.2017 40.6492L35.0207 39.8752C34.8729 39.937 34.7148 39.9708 34.5545 39.9748C34.1202 39.9748 33.9233 39.7206 33.9233 39.1906V37.059H35.0584V36.2287H33.9162V35.0083H33.0388L32.9114 36.2287L32.2165 36.2748V37.059H32.8564L32.8636 39.1906ZM27.2407 40.7041H28.2918V37.579C28.6653 37.2136 28.9215 37.0215 29.3152 37.0215C29.8075 37.0215 30.0189 37.2959 30.0189 38.0324V40.7027H31.0685V37.8981C31.0685 36.7674 30.6486 36.1204 29.6888 36.1204C29.0764 36.1204 28.6291 36.438 28.2541 36.7948L28.2918 35.9283V34.2704H27.2407V40.7041ZM23.5215 39.7654C22.8744 39.7654 22.4907 39.2455 22.4907 38.3804C22.4907 37.5154 22.9655 36.9853 23.5403 36.9853C23.8818 36.988 24.209 37.122 24.4538 37.3594V39.2556C24.1527 39.6108 23.8747 39.7654 23.5215 39.7654ZM22.0883 41.3699L21.7219 42.0804C22.215 42.3918 22.7845 42.5622 23.368 42.5728C24.7376 42.5728 25.5048 41.9258 25.5048 40.7951V36.2287H24.6493L24.5755 36.6388H24.5392C24.3877 36.4729 24.2026 36.3409 23.9963 36.2516C23.7899 36.1622 23.567 36.1175 23.342 36.1204C22.3647 36.1204 21.4238 37.0041 21.4238 38.3891C21.4238 39.738 22.1476 40.6218 23.2594 40.6218C23.7188 40.6099 24.1565 40.4247 24.4842 40.1033L24.4567 40.7951C24.4292 41.3727 24.1093 41.7424 23.3709 41.7424C22.9181 41.738 22.4752 41.6091 22.0911 41.3699H22.0883ZM18.9062 40.7041H19.9572V36.2272H18.9018L18.9062 40.7041ZM19.4361 35.4445C19.811 35.4445 20.0861 35.199 20.0861 34.8538C20.0861 34.6814 20.0174 34.5162 19.8952 34.3943C19.7731 34.2724 19.6074 34.204 19.4346 34.204C19.2618 34.204 19.0961 34.2724 18.9739 34.3943C18.8517 34.5162 18.7831 34.6814 18.7831 34.8538C18.7831 35.199 19.0582 35.4445 19.4317 35.4445H19.4361ZM14.0664 40.7041H17.6017V39.8116H15.1261V34.744H14.0664V40.7041Z" fill="#461A20"/>
</svg>
