<svg width="207" height="52" viewBox="0 0 207 52" fill="none" xmlns="http://www.w3.org/2000/svg">
<path d="M56.7489 21.4004C57.9744 21.4004 59.3387 21.4429 60.5217 22.2423C61.3103 22.7645 62.2375 23.7983 62.2375 25.6421C62.2375 27.667 60.9586 30.0543 57.4097 30.0543H54.4255V35.607H51.8145V21.4004H56.7489ZM56.8555 27.9761C57.4309 27.9761 58.2622 27.9974 58.923 27.3792C59.3813 26.9637 59.6265 26.2602 59.6265 25.6634C59.6265 25.1092 59.4026 24.4378 58.9443 24.0435C58.486 23.6491 57.7614 23.4572 56.9513 23.4572H54.4255V27.9761H56.8555ZM64.6462 26.1217C65.371 25.4395 66.4474 24.8427 68.0567 24.8427C69.6767 24.8427 70.7531 25.4395 71.4777 26.1217C72.5542 27.1341 73.1084 28.7114 73.1084 30.3208C73.1084 31.9301 72.5542 33.5074 71.4777 34.5198C70.7531 35.2019 69.6767 35.8094 68.0567 35.8094C66.4474 35.8094 65.371 35.2019 64.6462 34.5198C63.5699 33.5074 63.0157 31.9301 63.0157 30.3208C63.005 28.7008 63.5699 27.1341 64.6462 26.1217ZM66.4048 33.3049C66.6286 33.5713 67.1508 34.0722 68.0567 34.0722C68.9733 34.0722 69.4848 33.582 69.7086 33.3049C69.8792 33.1238 70.4973 32.2925 70.4973 30.3208C70.4973 28.3492 69.8792 27.5284 69.7086 27.3366C69.4848 27.0702 68.9626 26.5693 68.0567 26.5693C67.1508 26.5693 66.6286 27.0595 66.4048 27.3366C66.2449 27.5284 65.6161 28.3492 65.6161 30.3208C65.6161 32.2818 66.2449 33.1131 66.4048 33.3049ZM81.368 28.9139C81.3253 28.3811 81.1228 27.7523 80.8457 27.358C80.5899 26.9849 80.0997 26.5693 79.2684 26.5693C78.4584 26.5693 77.9255 26.9849 77.5951 27.5391C77.0728 28.3917 77.0409 29.7133 77.0409 30.3208C77.0409 31.2906 77.1795 32.4523 77.5951 33.1131C77.8615 33.5287 78.4051 34.0616 79.2684 34.0616C79.8865 34.0616 80.4087 33.8164 80.8031 33.2729C81.1121 32.836 81.3253 32.2178 81.3573 31.6742L83.5527 31.9408C83.4248 32.9106 82.9985 33.9976 82.2312 34.6904C81.5917 35.2659 80.5899 35.7881 79.1831 35.7881C77.6165 35.7881 76.5933 35.17 75.9965 34.6051C75.1865 33.8377 74.4192 32.4736 74.4192 30.3208C74.4192 28.3171 75.1012 27.1128 75.6448 26.4734C76.4121 25.5568 77.7123 24.8214 79.247 24.8214C80.5579 24.8214 81.6344 25.2797 82.3058 25.9832C82.9878 26.6652 83.4035 27.699 83.5527 28.6263L81.368 28.9139ZM91.6419 28.9139C91.5993 28.3811 91.3968 27.7523 91.1197 27.358C90.8746 26.9849 90.3736 26.5693 89.5423 26.5693C88.7324 26.5693 88.1995 26.9849 87.8692 27.5391C87.3576 28.3917 87.315 29.7133 87.315 30.3208C87.315 31.2906 87.4641 32.4523 87.8692 33.1131C88.1356 33.5287 88.6791 34.0616 89.5423 34.0616C90.1606 34.0616 90.6827 33.8164 91.077 33.2729C91.3862 32.836 91.5993 32.2178 91.6312 31.6742L93.8268 31.9408C93.7095 32.9106 93.2726 33.9976 92.5052 34.6904C91.8657 35.2659 90.8746 35.7881 89.4678 35.7881C87.8904 35.7881 86.878 35.17 86.2812 34.6051C85.4712 33.8377 84.7038 32.4736 84.7038 30.3208C84.7038 28.3171 85.386 27.1128 85.9295 26.4734C86.6968 25.5568 87.9971 24.8214 89.5318 24.8214C90.832 24.8214 91.9083 25.2797 92.5904 25.9832C93.2725 26.6652 93.6881 27.699 93.8373 28.6263L91.6419 28.9139ZM104.911 32.5375C104.538 33.7738 103.792 34.4986 103.173 34.9355C102.342 35.4896 101.266 35.8094 100.125 35.8094C98.6972 35.8094 97.2478 35.2019 96.3739 34.3173C95.5639 33.4967 94.9671 32.0579 94.9671 30.3633C94.9671 28.2105 95.8623 26.7824 96.8322 25.9725C97.397 25.4929 98.4522 24.8321 100.04 24.8321C102.054 24.8321 103.333 25.7593 104.015 26.7185C104.74 27.7097 105.081 29.0952 105.081 30.2994V30.779H97.5889C97.5889 30.8963 97.5675 31.8555 97.9406 32.6228C98.4948 33.7845 99.5179 34.0722 100.221 34.0722C100.776 34.0722 101.479 33.9017 102.065 33.3049C102.417 32.9318 102.566 32.5801 102.619 32.2498L104.911 32.5375ZM102.47 29.2017C102.47 28.6049 102.321 27.9228 102.012 27.4645C101.617 26.889 100.914 26.4946 100.147 26.4946C99.3581 26.4946 98.6759 26.889 98.2602 27.3792C97.9299 27.795 97.6421 28.4343 97.6421 29.2017H102.47ZM115.301 25.0452V35.607H112.894V26.8357H110.164C110.101 28.2639 110.059 28.8393 110.016 29.8198C109.952 30.9175 109.877 33.2303 108.94 34.4986C108.417 35.1806 107.777 35.4471 107.32 35.5749C107.052 35.6602 106.765 35.6921 106.467 35.6921C106.264 35.6921 106.051 35.6709 105.848 35.607V33.7845H106.051C106.36 33.7631 106.776 33.6033 107.042 33.3902C107.873 32.7293 107.948 31.2373 108.033 30.0543C108.14 28.4983 108.162 27.5711 108.171 26.1643L108.193 25.0452H115.301ZM120.236 28.8074H122.89C123.572 28.8074 124.893 28.8927 125.768 29.7559C126.556 30.5232 126.631 31.5996 126.631 32.1752C126.631 33.6885 126.012 34.4559 125.533 34.8503C125.363 34.9782 124.585 35.5963 123.093 35.5963H117.838V25.0452H120.236V28.8074ZM120.236 33.8591H122.122C122.581 33.8591 123.071 33.8377 123.487 33.486C123.732 33.2516 124.03 32.8679 124.03 32.1965C124.03 31.621 123.86 31.1627 123.391 30.8536C122.975 30.5872 122.453 30.5446 122.133 30.5446H120.247V33.8591H120.236ZM130.127 25.0452L132.077 28.3278L134.102 25.0452H136.297L133.206 29.8198L136.873 35.5963H134.059L131.661 31.621L129.135 35.5963H126.94L130.542 30.1183L127.313 25.0452H130.127ZM138.727 26.1217C139.452 25.4395 140.529 24.8427 142.137 24.8427C143.757 24.8427 144.834 25.4395 145.559 26.1217C146.635 27.1341 147.19 28.7114 147.19 30.3208C147.19 31.9301 146.624 33.5074 145.559 34.5198C144.834 35.2019 143.757 35.8094 142.137 35.8094C140.529 35.8094 139.452 35.2019 138.727 34.5198C137.651 33.5074 137.096 31.9301 137.096 30.3208C137.096 28.7008 137.651 27.1341 138.727 26.1217ZM140.486 33.3049C140.709 33.5713 141.232 34.0722 142.137 34.0722C143.054 34.0722 143.566 33.582 143.8 33.3049C143.96 33.1238 144.589 32.2925 144.589 30.3208C144.589 28.3492 143.971 27.5284 143.8 27.3366C143.577 27.0702 143.054 26.5693 142.137 26.5693C141.232 26.5693 140.709 27.0595 140.486 27.3366C140.315 27.5284 139.697 28.3492 139.697 30.3208C139.697 32.2818 140.326 33.1131 140.486 33.3049ZM148.478 27.9015C148.788 26.6225 149.597 25.9192 150.173 25.5675C150.525 25.3437 151.495 24.8427 153.157 24.8427C154.191 24.8427 155.246 25.024 156.035 25.4609C157.196 26.1004 157.484 27.0276 157.484 27.699C157.484 28.4237 157.132 29.8092 155.332 30.0116V30.0543C155.949 30.1396 156.632 30.406 157.048 30.8429C157.421 31.2373 157.708 31.8981 157.708 32.6015C157.708 33.6566 157.09 34.5838 156.301 35.106C155.353 35.7242 154.042 35.8094 153.073 35.8094C152.092 35.8094 150.61 35.7028 149.566 34.8822C148.99 34.424 148.446 33.6353 148.287 32.6441L150.461 32.2711C150.546 32.6015 150.728 33.1024 150.973 33.3902C151.517 34.019 152.358 34.0722 152.902 34.0722C153.446 34.0722 154.02 34.0083 154.479 33.6992C154.895 33.4114 155.098 33.0171 155.098 32.4949C155.098 32.058 155.012 31.7062 154.639 31.3971C154.159 31.0028 153.52 30.9389 152.923 30.9389H151.825V29.3189H152.923C153.339 29.3189 153.935 29.2337 154.266 29.0738C154.703 28.85 154.948 28.477 154.948 27.8695C154.948 27.5391 154.82 27.2194 154.511 26.9742C154.031 26.5799 153.349 26.5586 152.998 26.5586C152.518 26.5586 151.815 26.6225 151.239 27.1128C150.994 27.3153 150.664 27.7097 150.557 28.3278L148.478 27.9015ZM169.997 23.8836H163.143V27.0276H166.191C167.29 27.0276 168.345 27.1128 169.421 27.8589C170.477 28.5836 171.137 29.66 171.137 31.216C171.137 32.6654 170.593 33.7419 169.911 34.4239C168.878 35.4577 167.695 35.607 166.458 35.607H159.83V21.4004H169.997V23.8836ZM163.143 33.1131H165.818C166.319 33.1131 166.778 33.0917 167.247 32.6121C167.706 32.1538 167.769 31.6423 167.769 31.248C167.769 30.8003 167.641 30.3421 167.247 29.9477C166.778 29.4788 166.17 29.4255 165.734 29.4255H163.143V33.1131ZM172.842 27.9761C173.173 26.5479 174.099 25.8232 174.665 25.4929C175.485 25.0133 176.583 24.8321 177.958 24.8321C179.695 24.8321 181.454 25.0559 182.242 26.6971C182.658 27.5498 182.615 28.4557 182.615 29.2444V33.3262C182.615 34.1788 182.732 34.9675 182.924 35.607H179.919C179.834 35.1913 179.769 34.6371 179.759 33.9337C179.364 34.6371 178.405 35.8201 176.22 35.8201C175.25 35.8201 174.249 35.5749 173.567 35.0101C172.906 34.4665 172.49 33.6033 172.49 32.6547C172.49 31.5996 172.948 30.3314 174.75 29.5854C175.912 29.1058 177.798 28.9459 178.64 28.9032L179.631 28.8607V28.6368C179.631 28.349 179.609 27.7309 179.322 27.3899C178.927 26.9316 178.139 26.9103 177.83 26.9103C177.403 26.9103 176.881 26.953 176.444 27.2194C176.178 27.3792 175.826 27.7203 175.698 28.2958L172.842 27.9761ZM178.704 30.6085C177.67 30.6938 176.636 30.8003 176.05 31.5144C175.89 31.7169 175.719 32.0366 175.719 32.4629C175.719 32.9212 175.944 33.2303 176.178 33.3902C176.465 33.6139 176.902 33.7205 177.318 33.7205C177.937 33.7205 178.661 33.4541 179.077 32.9532C179.141 32.8892 179.631 32.2711 179.631 31.0668V30.5126L178.704 30.6085ZM188.093 25.0452V28.9992H191.428V25.0452H194.509V35.5963H191.428V31.1627H188.093V35.5963H185.013V25.0452H188.093ZM199.998 25.0452V29.1058H200.829C201.724 29.1058 202.097 28.6688 202.321 28.1893C202.758 27.262 202.737 26.5373 203.131 25.8126C203.44 25.237 203.856 25.0879 204.122 25.0452H206.669C206.339 25.3969 206.051 25.8126 205.859 26.1856C205.529 26.8677 205.22 27.9868 205.028 28.4664C204.783 29.1271 204.368 29.7879 203.312 29.8731V29.9158C203.877 30.0011 204.453 30.2887 204.889 30.9282C205.156 31.3226 205.337 31.8341 205.636 32.6441C205.923 33.4754 206.051 33.7631 206.318 34.4026C206.53 34.8822 206.648 35.17 207 35.607H204.1C203.643 35.4577 203.333 35.1486 202.96 34.0722C202.673 33.2516 202.63 32.9532 202.439 32.4949L202.289 32.1219C201.98 31.3332 201.564 31.1734 200.924 31.1734H199.998V35.607H196.918V25.0452H199.998Z" fill="#19502E"/>
<path d="M23.4227 51.295C10.8574 51.295 0.636719 41.085 0.636719 28.5197C0.636719 21.3045 3.95123 14.6648 9.72769 10.3166L9.96215 10.1247V0H23.0389V5.74444H23.4227C35.9773 5.74444 46.1979 15.965 46.1979 28.5304C46.1979 41.085 35.9773 51.295 23.4227 51.295Z" fill="#19502E"/>
<path d="M16.8477 28.6211L21.5492 23.9477V20.7714L16.8477 25.4235V28.6211ZM16.8477 16.7824L21.5492 12.0982V9.10383L16.8477 13.7558V16.7824ZM16.8477 20.6965L21.5492 16.0231V13.0287L16.8477 17.6807V20.6965ZM15.506 9.13591L14.8826 8.52633V1.11511H14.1642V7.82051L13.5514 7.20023V1.11511H12.833V6.50509L12.2097 5.88481V1.11511H11.5018V8.18412L16.2138 12.8575V1.11511H15.506V9.13591ZM16.8477 24.6107L21.5492 19.9372V16.9428L16.8477 21.5948V24.6107ZM11.5018 23.9477L16.2138 28.6211V25.4235L11.5018 20.7714V23.9477ZM20.8413 5.88481L20.218 6.50509V1.11511H19.5101V7.21093L18.8868 7.82051V1.11511H18.1789V8.51564L17.5555 9.13591V1.11511H16.8477V12.8575L21.5492 8.18412V1.11511H20.8413V5.88481ZM11.5018 12.0982L16.2138 16.7824V13.7558L11.5018 9.10383V12.0982ZM11.5018 16.0231L16.2138 20.6965V17.6807L11.5018 13.0287V16.0231ZM11.5018 19.9372L16.2138 24.6107V21.5948L11.5018 16.9428V19.9372ZM39.5313 22.4077H28.0892C28.3322 22.0227 28.4695 21.5735 28.4695 21.0922C28.4695 19.7127 27.3601 18.6004 25.9972 18.6004C24.6343 18.6004 23.5355 19.7234 23.5355 21.0922C23.5355 21.6377 23.7046 22.1296 24.0004 22.536C23.7892 22.675 23.6412 22.921 23.6412 23.2098C23.6412 23.4878 23.7892 23.7338 24.0004 23.8728C23.7152 24.2792 23.5355 24.7818 23.5355 25.3166C23.5355 26.6962 24.6343 27.8084 25.9972 27.8084C27.3601 27.8084 28.4695 26.6962 28.4695 25.3166C28.4695 24.8353 28.3322 24.3754 28.0892 24.0012H36.6047V24.5252H35.7595V25.2631H36.6047V26.0224H35.7595V27.4233H36.6047V26.7924H37.8514V27.4233H38.6861V26.0224H37.8514V25.2631H38.6861V24.5252H37.8514V24.0012H39.5313C39.8588 24.0012 40.1229 23.7231 40.1229 23.3915V23.0173C40.1229 22.6857 39.8482 22.4077 39.5313 22.4077ZM27.2757 25.3166C27.2757 26.0224 26.7051 26.5999 25.9972 26.5999C25.2999 26.5999 24.7295 26.0224 24.7295 25.3166C24.7295 25.0599 24.8034 24.8139 24.9407 24.6107L25.2894 24.0012C25.0675 23.8087 24.9301 23.5199 24.9301 23.1991C24.9301 22.8782 25.0675 22.5895 25.2894 22.3969L24.9407 21.7874C24.8034 21.5842 24.7295 21.349 24.7295 21.0816C24.7295 20.3757 25.2999 19.7982 25.9972 19.7982C26.6945 19.7982 27.2757 20.3757 27.2757 21.0816C27.2757 21.6056 26.6734 22.8569 26.6734 22.8569V23.5306C26.6734 23.5413 27.2757 24.7926 27.2757 25.3166Z" fill="#FFCB05"/>
<path d="M7.11644 21.1765V24.2779C7.11644 27.2407 8.406 29.1483 9.15202 29.8838C9.58899 30.3101 14.0012 34.6584 14.0652 34.7116C15.44 36.0545 15.6745 36.4914 15.9835 37.2588V33.8271C15.9835 30.7683 14.4382 29.5853 13.6388 28.8073C11.7738 26.9956 10.5375 25.8019 9.52508 24.8C7.628 22.8924 7.11644 21.1765 7.11644 21.1765ZM13.6389 36.4702C11.7845 34.6477 10.5375 33.4647 9.53577 32.4629C7.62804 30.5552 7.12714 29.2656 7.12714 29.2656V31.9406C7.12714 34.9034 8.47001 36.7899 9.15212 37.5679C9.58899 37.9942 14.0119 42.3211 14.0652 42.3744C15.44 43.7173 15.6745 44.3568 15.9835 45.1135V41.4898C15.9835 38.4311 14.4276 37.2481 13.6389 36.4702Z" fill="white"/>
<path d="M23.4226 7.20435C23.0816 7.20435 22.7405 7.215 22.3995 7.22567V8.67509C22.7405 8.65378 23.0709 8.65378 23.4226 8.65378C34.3893 8.65378 43.2777 17.5422 43.2777 28.5195C43.2777 39.4862 34.3893 48.3746 23.4226 48.3746C12.4559 48.3746 3.55686 39.4862 3.55686 28.5195C3.55686 22.434 6.29586 16.988 10.6122 13.3431V11.4887C5.44325 15.3787 2.10742 21.5601 2.10742 28.5195C2.10742 40.2855 11.6459 49.824 23.4226 49.824C35.1886 49.824 44.7271 40.2855 44.7271 28.5195C44.7271 16.7535 35.1886 7.20435 23.4226 7.20435Z" fill="white"/>
<path d="M38.4925 39.646C38.8228 39.1984 39.132 38.7295 39.4304 38.2499V35.3937H38.4925V39.646ZM41.2209 34.3492C41.3594 33.9336 41.4766 33.518 41.5832 33.1023H38.4925V33.859H38.9614C39.7821 33.8376 40.7093 33.8271 41.2209 34.3492Z" fill="white"/>
<path d="M20.641 32.9957H19.799V41.4898H20.641V32.9957Z" fill="white"/>
<path d="M20.641 31.365C21.3551 31.365 21.8561 31.5142 22.1437 31.7913C22.4315 32.0684 22.5701 32.5694 22.5701 33.2835V41.2233C22.5701 41.9374 22.4315 42.4383 22.1437 42.7154C21.7068 43.1523 20.8968 43.1523 20.2254 43.1523C20.0762 43.1417 19.927 43.1417 19.7991 43.1417V46.9038C20.0762 46.9571 20.3533 47.0104 20.641 47.0531V43.9623C21.92 43.9623 22.7513 43.5254 23.1456 42.6514V47.2555H23.4227C23.5932 47.2555 23.7744 47.2555 23.9449 47.2449V33.422C23.9449 32.6866 24.0941 32.1751 24.3712 31.8873C24.6483 31.5995 25.1492 31.4503 25.8526 31.4503C26.5666 31.4503 27.6218 31.3438 28.1653 31.8873C28.4424 32.1751 28.5703 32.6972 28.5703 33.422V37.4932H26.6733V33.1449H25.8526V47.0957C26.1297 47.0637 26.3962 47.021 26.6733 46.9678V38.3138H28.5703V46.5308C28.9646 46.4243 29.3483 46.2964 29.732 46.1578V38.6335C29.732 37.781 29.9345 37.1415 30.7977 36.8537L29.8385 31.6209H31.757L32.0767 37.3333H32.3112L32.6309 31.6209H34.6558L33.5687 36.8537C34.4746 37.1734 34.6558 37.7276 34.6558 38.6335V43.4934C35.2206 43.0671 35.7535 42.6195 36.265 42.1292V31.5675H41.8923C41.9349 31.3118 41.9669 31.0667 41.9989 30.8003H28.8474L29.0286 31.7487C28.6129 30.9814 27.8242 30.5977 26.6626 30.5977H25.842C24.4458 30.5977 23.6038 31.152 23.2735 32.2603C22.975 31.0986 22.0905 30.5232 20.6304 30.5232H17.0281V46.1151C17.3052 46.2111 17.5823 46.3069 17.8594 46.3922V31.365H20.641ZM35.3379 37.3653L34.432 36.502L35.3379 31.8127V37.3653Z" fill="white"/>
<path d="M31.7676 45.2945C32.0554 45.1454 32.343 44.9962 32.6308 44.8363V38.4098H31.7676V45.2945Z" fill="white"/>
</svg>
