<svg width="123" height="31" viewBox="0 0 123 31" fill="none" xmlns="http://www.w3.org/2000/svg">
<path d="M15.0761 26.9014C21.2915 26.9014 26.3301 21.8628 26.3301 15.6474L29.9 12.887C30.0656 13.7819 30.1522 14.7045 30.1522 15.6474C30.1522 23.9737 23.4024 30.7235 15.0761 30.7235C6.7498 30.7235 0 23.9737 0 15.6474C0 7.32109 6.7498 0.571289 15.0761 0.571289C18.6048 0.571289 21.8504 1.78363 24.419 3.81451L21.507 6.41062C19.6841 5.1391 17.4672 4.3934 15.0761 4.3934C8.86069 4.3934 3.82211 9.43198 3.82211 15.6474C3.82211 21.8628 8.86069 26.9014 15.0761 26.9014Z" fill="url(#paint0_angular_611_18193)"/>
<path d="M26.5423 6.94141L28.4533 9.91416L14.9698 19.7879L9.34277 16.2843V12.0376L14.9698 15.435L26.5423 6.94141Z" fill="url(#paint1_linear_611_18193)"/>
<path d="M82.0599 5.74244H64.8659V17.022H74.873C76.4808 17.022 77.7842 18.3687 77.7842 20.0299C77.7842 21.6911 76.4808 23.0378 74.873 23.0378H64.8659V26.4217H75.9197C79.3111 26.4217 82.0599 23.5811 82.0599 20.0769C82.0599 16.5728 79.3106 13.7322 75.9192 13.7322H69.1417V8.93833H77.7842L82.0599 5.74244Z" fill="#1BA136"/>
<path d="M101.346 5.74244H86.3357V26.3277H101.346V22.9438H90.6115V17.398H99.8908V14.2021H90.6115V8.93833H97.0706L101.346 5.74244Z" fill="#1BA136"/>
<path d="M109.989 26.3277H105.713V17.116H114.401C116.587 17.116 118.358 15.2854 118.358 13.0272C118.358 10.769 116.587 8.93833 114.401 8.93833H109.989H105.713V5.55445H115.675C119.669 5.55445 122.907 8.90011 122.907 13.0272C122.907 17.1543 119.669 20.4999 115.675 20.4999H109.989V26.3277Z" fill="#1BA136"/>
<path d="M60.5901 7.99836L57.588 10.4423C55.8413 9.38951 54.3129 9.12632 53.7671 9.12632C47.6536 8.97593 46.4892 13.6382 46.6711 15.9881C47.3989 24.1094 54.2523 23.1945 57.588 21.7219L60.5901 24.0718C59.4984 25.3877 55.4956 26.6097 53.0393 26.6097C50.4011 26.6097 42.4863 25.2937 42.4863 15.9881C42.4863 6.68241 49.7642 5.36646 53.4942 5.36646C56.4781 5.36646 59.5591 7.08973 60.5901 7.99836Z" fill="#1BA136"/>
<path d="M64.8659 17.022H69.2326V23.0378H64.8659V17.022Z" fill="#1BA136"/>
<path d="M105.713 8.93833H109.989V17.21H105.713V8.93833Z" fill="#1BA136"/>
<defs>
<radialGradient id="paint0_angular_611_18193" cx="0" cy="0" r="1" gradientUnits="userSpaceOnUse" gradientTransform="translate(15.0761 15.6474) rotate(90) scale(15.0761)">
<stop offset="0.203225" stop-color="#DFFA16"/>
<stop offset="0.307936" stop-color="#8CFB6B"/>
<stop offset="0.369792" stop-color="#10E7EF"/>
<stop offset="0.494792" stop-color="#0DA9DA"/>
<stop offset="0.583333" stop-color="#0B86CE"/>
<stop offset="0.729406" stop-color="#219E39"/>
<stop offset="1" stop-color="#7EF629"/>
</radialGradient>
<linearGradient id="paint1_linear_611_18193" x1="8.91809" y1="14.6918" x2="28.241" y2="8.95863" gradientUnits="userSpaceOnUse">
<stop stop-color="#219F36"/>
<stop offset="1" stop-color="#24A139"/>
</linearGradient>
</defs>
</svg>
