<svg width="219" height="38" viewBox="0 0 219 38" fill="none" xmlns="http://www.w3.org/2000/svg">
<path d="M36.9922 29.7829L29.5944 37.2049L2.22828 37.2068L0 34.9702V7.51171L7.39889 0.0881348H34.7643L36.9922 2.32359V29.7829Z" fill="#ED1C24"/>
<path d="M34.7646 0.0881348L26.4442 8.43657V20.6222L19.6286 11.2247H5.26144V14.1776H9.4965V25.4421L0.000976562 34.9702V37.2068L2.22851 37.2049L12.688 26.7101V14.1776H16.9215V26.0699H20.0723V16.672L26.8884 26.0699H29.5947V9.74641L36.9928 2.32359L36.9924 0.0881348H34.7646Z" fill="white"/>
<path d="M48.8293 14.9083H44.3906V11.3027H57.3699V14.9083H52.9316V26.148H48.8296V14.9083H48.8293Z" fill="black"/>
<path d="M59.5264 11.3035H71.4261V14.8012H63.5846V17.0518H70.686V20.2973H63.5846V22.6503H71.5324V26.1492H59.5264V11.3035Z" fill="black"/>
<path d="M78.2846 18.5991L73.4216 11.3035H78.1365L80.7571 15.4811L83.4007 11.3035H88.0072L83.1471 18.5568L88.22 26.1488H83.5055L80.6717 21.6745L77.8192 26.1488H73.2109L78.2846 18.5991Z" fill="black"/>
<path d="M90.1582 11.3035H94.2587V16.8601H99.523V11.3035H103.624V26.1488H99.523V20.5068H94.2587V26.1488H90.1582V11.3035Z" fill="black"/>
<path d="M106.087 18.726C106.087 14.462 109.512 11.0054 114.079 11.0054C118.643 11.0054 122.025 14.4205 122.025 18.726C122.025 22.9893 118.601 26.4464 114.036 26.4464C109.468 26.4467 106.087 23.0305 106.087 18.726ZM117.84 18.726C117.84 16.5834 116.296 14.7161 114.036 14.7161C111.793 14.7161 110.293 16.5403 110.293 18.726C110.293 20.8687 111.838 22.7326 114.078 22.7326C116.338 22.733 117.84 20.9107 117.84 18.726Z" fill="black"/>
<path d="M124.506 11.3035H128.608V16.8601H133.871V11.3035H137.972V26.1488H133.871V20.5068H128.608V26.1488H124.506V11.3035Z" fill="black"/>
<path d="M141.163 11.3035H145.223V19.6587L150.952 11.3035H154.776V26.1488H150.718V17.7932L144.989 26.1488H141.163V11.3035Z" fill="black"/>
<path d="M157.97 11.3035H162.069V17.3275L167.164 11.3035H172.027L166.425 17.6866L172.216 26.1492H167.292L163.572 20.6359L162.069 22.3102V26.1495H157.97V11.3035Z" fill="black"/>
<path d="M172.247 18.726C172.247 14.462 175.67 11.0054 180.236 11.0054C184.802 11.0054 188.185 14.4205 188.185 18.726C188.185 22.9893 184.759 26.4464 180.194 26.4464C175.628 26.4467 172.247 23.0305 172.247 18.726ZM183.997 18.726C183.997 16.5834 182.457 14.7161 180.195 14.7161C177.952 14.7161 176.454 16.5403 176.454 18.726C176.454 20.8687 177.995 22.7326 180.236 22.7326C182.497 22.733 183.997 20.9107 183.997 18.726Z" fill="black"/>
<path d="M206.507 11.3035H210.607V15.9678H212.848C216.4 15.9678 219 17.6661 219 21.0149C219 24.2197 216.675 26.1492 213.06 26.1492H206.507V11.3035ZM212.743 22.6926C214.095 22.6926 214.898 22.0771 214.898 20.9109C214.898 19.8719 214.095 19.1928 212.763 19.1928H210.607V22.6926H212.743Z" fill="black"/>
<path d="M191.816 11.3035V17.816C191.816 19.3552 191.661 21.5817 190.648 22.3693C190.172 22.7381 189.388 23.021 188.892 23.021V26.5211H189.28C190.698 26.5211 192.287 25.949 192.898 25.5603C195.371 23.9848 195.677 20.988 195.677 17.6028V14.9087H199.216V26.1484H203.317V11.3035H191.816Z" fill="black"/>
</svg>
